<svg width="174" height="30" viewBox="0 0 174 30" fill="none" xmlns="http://www.w3.org/2000/svg">
<path d="M6.03093 1.25199C3.76016 2.24892 1.43401 5.07353 0.990933 7.39968C0.326317 11.1105 0.990933 17.4797 2.20939 19.1412C5.75401 23.9043 11.1817 24.4581 15.3355 20.5258C16.9417 18.9751 18.1602 15.5412 17.6063 14.1012C16.9971 12.4951 15.0586 13.2705 14.3386 15.3751C13.6186 17.4797 11.1817 19.8612 9.63093 19.8612C5.86478 19.8612 4.09247 17.2581 4.09247 11.8305C4.09247 6.40276 5.86478 3.79968 9.63093 3.79968C11.1817 3.79968 13.6186 6.18122 14.3386 8.28584C14.7817 9.5043 15.3909 10.2243 16.1109 10.3351C17.5509 10.5566 17.994 9.44892 17.3848 6.84584C16.2771 1.97199 10.6832 -0.797239 6.03093 1.25199Z" fill="#0CD0AC"/>
<path d="M69.2803 0.864539C69.0587 1.03069 68.8926 4.79685 68.8926 9.17223C68.8926 17.9784 69.2803 19.4184 72.2157 21.523C74.431 23.0738 77.311 23.5722 78.1972 22.4645C79.1387 21.3568 78.4187 19.8615 76.9233 19.8615C76.2033 19.8615 74.8741 19.1968 73.9326 18.4215C72.3264 17.0922 72.2157 16.7045 72.2157 13.4368V9.89223H75.2064C77.3664 9.89223 78.2526 9.67069 78.5295 9.06146C79.1941 7.23377 78.308 6.56915 75.2064 6.56915H72.2157V4.18762C72.2157 1.25223 70.6649 -0.520077 69.2803 0.864539Z" fill="#0CD0AC"/>
<path d="M102.123 1.5293C99.6864 2.80315 98.3018 4.68622 97.8587 7.2893C97.5818 9.28315 97.6925 9.56007 101.459 13.2708C105.391 17.2031 106.222 17.5908 107.329 15.8185C107.828 15.0431 107.274 14.2678 104.394 11.3324C101.293 8.17545 100.96 7.67699 101.514 6.62468C102.566 4.68622 104.671 3.63391 106.665 4.02161C109.046 4.46468 110.32 5.79391 111.04 8.34161C111.483 10.1139 111.816 10.5016 112.813 10.3355C113.865 10.1693 114.031 9.83699 113.976 7.84315C113.92 4.96315 112.646 3.02468 109.877 1.58468C107.163 0.200068 104.616 0.200068 102.123 1.5293Z" fill="#0CD0AC"/>
<path d="M19.9877 6.9569C19.4338 7.45536 19.5446 21.6892 20.0984 22.52C20.3754 22.9631 21.04 23.1846 21.5938 23.0738C22.5354 22.9077 22.7015 22.2431 22.923 17.8123C23.2554 12.0523 23.92 10.8338 27.243 10.0584C28.7384 9.72613 29.3477 9.22767 29.4584 8.34151C29.68 6.67998 28.2954 6.2369 25.4707 7.01228C24.0861 7.39998 22.9784 7.39998 22.7015 7.06767C22.0369 6.51382 20.4861 6.40305 19.9877 6.9569Z" fill="#0CD0AC"/>
<path d="M31.7294 7.73212C30.7879 9.50443 31.4525 16.649 32.7263 18.8644C34.3325 21.5783 36.4925 22.9075 39.4279 22.9075C40.8679 22.9075 42.5848 22.686 43.3048 22.4644C44.0248 22.1875 44.5233 22.2429 44.5233 22.5198C44.5233 23.7383 42.4186 25.5106 40.6463 25.8983C39.0402 26.2306 38.7079 26.5075 38.7079 27.6152C38.7079 30.9937 45.2986 28.6675 47.2925 24.569C48.234 22.6306 48.4002 21.1352 48.4002 15.0983C48.4002 11.166 48.1786 7.62136 47.9017 7.23366C47.6248 6.79059 46.9602 6.56905 46.4063 6.67982C45.5202 6.84597 45.2986 7.51059 45.0771 11.5537C44.7448 16.7598 44.0248 18.5321 41.9756 19.3075C39.7048 20.1937 38.5417 19.9721 36.714 18.3106C35.0525 16.8152 34.9417 16.4275 34.6094 11.7752C34.3325 7.78751 34.1109 6.84597 33.3356 6.67982C32.8371 6.56905 32.1171 7.06751 31.7294 7.73212Z" fill="#0CD0AC"/>
<path d="M50.7261 7.2337C50.2831 7.67677 50.0615 10.8891 50.0615 17.9783C50.0615 26.1752 50.2277 28.1691 50.8923 28.7229C52.5538 30.1075 53.3846 28.9445 53.3846 25.3445C53.3846 22.0768 53.44 21.966 54.6584 22.2983C55.3231 22.5198 56.8738 22.8522 58.0923 22.9629C62.5231 23.5168 66.6769 19.6398 66.6769 15.0429C66.6769 9.11677 61.6923 5.406 56.0431 7.06754C54.4369 7.566 53.6061 7.566 53.2184 7.17831C52.4431 6.40293 51.5569 6.40293 50.7261 7.2337ZM61.7477 11.4983C64.0184 13.7691 63.9631 16.4829 61.6369 18.4214C58.8123 20.8029 55.5446 20.0275 54.16 16.7045C53.3846 14.8768 53.3846 14.4891 54.16 12.8275C55.7108 9.61523 59.2 9.006 61.7477 11.4983Z" fill="#0CD0AC"/>
<path d="M83.2923 7.78746C80.3015 9.83669 79.1938 11.7752 79.1938 14.8767C79.1938 17.9782 80.3015 19.9167 83.2923 21.9105C88.3323 25.3998 95.4769 21.2459 95.4769 14.8767C95.4769 8.50746 88.3323 4.35362 83.2923 7.78746ZM90.4369 11.3321C91.8215 12.4398 92.1538 13.2152 92.1538 14.8767C92.1538 16.5382 91.8215 17.3136 90.4369 18.4213C87.6677 20.8028 84.3446 20.0275 82.96 16.7598C81.9077 14.2675 82.6831 11.9413 84.8985 10.7228C87.0585 9.55977 88.5538 9.72592 90.4369 11.3321Z" fill="#0CD0AC"/>
<path d="M116.911 6.90156C116.025 7.78772 116.745 9.94771 120.013 16.2616C122.117 20.3046 123.834 22.9631 124.388 23.0739C124.997 23.1846 125.773 22.5754 126.437 21.4677L127.489 19.7508L128.376 21.4677C130.093 24.7354 131.145 23.9046 135.188 15.7631C138.345 9.44925 138.788 8.17541 138.179 7.45541C136.794 5.79387 135.908 6.56925 133.36 11.6646C130.369 17.7016 130.425 17.5354 129.816 16.5385C129.483 16.04 129.982 14.4893 131.256 11.9416C132.806 8.95079 133.083 7.95387 132.529 7.34464C131.311 5.84925 130.369 6.62464 128.209 10.8339C124.499 18.1446 124.831 18.0893 121.729 12.0523C119.237 7.28925 117.963 5.90464 116.911 6.90156Z" fill="#0CD0AC"/>
<path d="M144.215 7.17812C137.514 9.83658 137.237 19.0304 143.772 22.4089C145.545 23.3504 147.871 23.4058 150.252 22.575C151.582 22.132 152.191 22.132 152.8 22.6304C153.243 23.0181 154.019 23.1843 154.462 22.9627C155.126 22.7412 155.292 21.3012 155.292 14.8766C155.292 8.45197 155.126 7.01197 154.462 6.79043C154.019 6.56889 153.243 6.73504 152.8 7.12274C152.191 7.6212 151.582 7.6212 150.252 7.17812C148.148 6.45812 146.098 6.45812 144.215 7.17812ZM150.252 11.332C151.637 12.4397 151.969 13.215 151.969 14.8766C151.969 16.5381 151.637 17.3135 150.252 18.4212C148.314 20.0827 147.04 20.1935 144.825 19.0304C141.612 17.4243 141.557 12.4397 144.714 10.7227C146.874 9.55966 148.369 9.72581 150.252 11.332Z" fill="#0CD0AC"/>
<path d="M157.896 6.95686C157.674 7.12301 157.508 12.1076 157.508 18.0338C157.508 27.1169 157.619 28.8338 158.339 29.0553C159.945 29.6646 160.831 28.1692 160.831 25.0122C160.831 22.2984 160.942 22.0215 161.828 22.3538C162.326 22.5753 163.877 22.9076 165.262 23.0184C168.031 23.2953 170.579 22.0215 172.683 19.1969C174.179 17.0922 174.179 12.6615 172.683 10.5569C170.025 7.01224 166.48 5.84917 162.548 7.1784C161.219 7.67686 160.609 7.67686 160.111 7.1784C159.446 6.51378 158.449 6.40301 157.896 6.95686ZM167.699 10.4461C168.529 10.723 169.582 11.8307 170.08 12.883C170.856 14.4892 170.856 15.043 170.246 16.5384C169.471 18.3661 167.2 19.8615 165.262 19.8615C164.597 19.8615 163.323 19.1415 162.437 18.2553C160.166 15.9846 160.222 13.2707 162.548 11.3322C164.376 9.78147 165.483 9.55994 167.699 10.4461Z" fill="#0CD0AC"/>
<path d="M104.505 8.009C104.283 8.61823 105.28 10.0028 107.662 12.3844C110.708 15.4305 111.04 15.9844 110.486 16.9813C108.105 21.4121 102.345 20.4152 101.016 15.3752C100.517 13.5475 100.185 13.1598 99.1878 13.3259C96.5848 13.6582 97.6925 18.9752 100.794 21.3567C104.726 24.2921 110.376 23.4059 113.034 19.3628C115.139 16.2613 114.751 15.0428 110.542 10.8336C106.831 7.12285 105.169 6.34746 104.505 8.009Z" fill="#0CD0AC"/>
</svg>
