<?xml version="1.0" standalone="no"?>
<!DOCTYPE svg PUBLIC "-//W3C//DTD SVG 20010904//EN"
 "http://www.w3.org/TR/2001/REC-SVG-20010904/DTD/svg10.dtd">
<svg version="1.0" xmlns="http://www.w3.org/2000/svg"
 width="270.000000pt" height="51.000000pt" viewBox="0 0 325.000000 61.000000"
 preserveAspectRatio="xMidYMid meet">

<g transform="translate(0.000000,50.000000) scale(0.050000,-0.050000)"
fill="#0CD0AC" stroke="none">
<path d="M145 566 c-41 -18 -83 -69 -91 -111 -12 -67 0 -182 22 -212 64 -86
162 -96 237 -25 29 28 51 90 41 116 -11 29 -46 15 -59 -23 -13 -38 -57 -81
-85 -81 -68 0 -100 47 -100 145 0 98 32 145 100 145 28 0 72 -43 85 -81 8 -22
19 -35 32 -37 26 -4 34 16 23 63 -20 88 -121 138 -205 101z"/>
<path d="M1287 573 c-4 -3 -7 -71 -7 -150 0 -159 7 -185 60 -223 40 -28 92
-37 108 -17 17 20 4 47 -23 47 -13 0 -37 12 -54 26 -29 24 -31 31 -31 90 l0
64 54 0 c39 0 55 4 60 15 12 33 -4 45 -60 45 l-54 0 0 43 c0 53 -28 85 -53 60z"/>
<path d="M1880 561 c-44 -23 -69 -57 -77 -104 -5 -36 -3 -41 65 -108 71 -71
86 -78 106 -46 9 14 -1 28 -53 81 -56 57 -62 66 -52 85 19 35 57 54 93 47 43
-8 66 -32 79 -78 8 -32 14 -39 32 -36 19 3 22 9 21 45 -1 52 -24 87 -74 113
-49 25 -95 25 -140 1z"/>
<path d="M397 463 c-10 -9 -8 -266 2 -281 5 -8 17 -12 27 -10 17 3 20 15 24
95 6 104 18 126 78 140 27 6 38 15 40 31 4 30 -21 38 -72 24 -25 -7 -45 -7
-50 -1 -12 10 -40 12 -49 2z"/>
<path d="M609 449 c-17 -32 -5 -161 18 -201 29 -49 68 -73 121 -73 26 0 57 4
70 8 13 5 22 4 22 -1 0 -22 -38 -54 -70 -61 -29 -6 -35 -11 -35 -31 0 -61 119
-19 155 55 17 35 20 62 20 171 0 71 -4 135 -9 142 -5 8 -17 12 -27 10 -16 -3
-20 -15 -24 -88 -6 -94 -19 -126 -56 -140 -41 -16 -62 -12 -95 18 -30 27 -32
34 -38 118 -5 72 -9 89 -23 92 -9 2 -22 -7 -29 -19z"/>
<path d="M952 458 c-8 -8 -12 -66 -12 -194 0 -148 3 -184 15 -194 30 -25 45
-4 45 61 0 59 1 61 23 55 12 -4 40 -10 62 -12 80 -10 155 60 155 143 0 107
-90 174 -192 144 -29 -9 -44 -9 -51 -2 -14 14 -30 14 -45 -1z m199 -77 c41
-41 40 -90 -2 -125 -51 -43 -110 -29 -135 31 -14 33 -14 40 0 70 28 58 91 69
137 24z"/>
<path d="M1540 448 c-54 -37 -74 -72 -74 -128 0 -56 20 -91 74 -127 91 -63
220 12 220 127 0 115 -129 190 -220 128z m129 -64 c25 -20 31 -34 31 -64 0
-30 -6 -44 -31 -64 -50 -43 -110 -29 -135 30 -19 45 -5 87 35 109 39 21 66 18
100 -11z"/>
<path d="M2147 464 c-16 -16 -3 -55 56 -169 38 -73 69 -121 79 -123 11 -2 25
9 37 29 l19 31 16 -31 c31 -59 50 -44 123 103 57 114 65 137 54 150 -25 30
-41 16 -87 -76 -54 -109 -53 -106 -64 -88 -6 9 3 37 26 83 28 54 33 72 23 83
-22 27 -39 13 -78 -63 -67 -132 -61 -131 -117 -22 -45 86 -68 111 -87 93z"/>
<path d="M2640 459 c-121 -48 -126 -214 -8 -275 32 -17 74 -18 117 -3 24 8 35
8 46 -1 8 -7 22 -10 30 -6 12 4 15 30 15 146 0 116 -3 142 -15 146 -8 4 -22 1
-30 -6 -11 -9 -22 -9 -46 -1 -38 13 -75 13 -109 0z m109 -75 c25 -20 31 -34
31 -64 0 -30 -6 -44 -31 -64 -35 -30 -58 -32 -98 -11 -58 29 -59 119 -2 150
39 21 66 18 100 -11z"/>
<path d="M2887 463 c-4 -3 -7 -93 -7 -200 0 -164 2 -195 15 -199 29 -11 45 16
45 73 0 49 2 54 18 48 9 -4 37 -10 62 -12 50 -5 96 18 134 69 27 38 27 118 0
156 -48 64 -112 85 -183 61 -24 -9 -35 -9 -44 0 -12 12 -30 14 -40 4z m177
-63 c15 -5 34 -25 43 -44 14 -29 14 -39 3 -66 -14 -33 -55 -60 -90 -60 -12 0
-35 13 -51 29 -41 41 -40 90 2 125 33 28 53 32 93 16z"/>
<path d="M1923 444 c-4 -11 14 -36 57 -79 55 -55 61 -65 51 -83 -43 -80 -147
-62 -171 29 -9 33 -15 40 -33 37 -47 -6 -27 -102 29 -145 71 -53 173 -37 221
36 38 56 31 78 -45 154 -67 67 -97 81 -109 51z"/>
</g>
</svg>
